<svg width="17px" height="15px" viewBox="0 0 16 15" version="1.1">
  <g>
    <path d="M 15.269531 3.644531 C 15.09375 2.949219 14.578125 2.402344 13.925781 2.214844 C 12.742188 1.878906 8 1.878906 8 1.878906 C 8 1.878906 3.257812 1.878906 2.074219 2.214844 C 1.421875 2.402344 0.90625 2.949219 0.730469 3.644531 C 0.414062 4.902344 0.414062 7.527344 0.414062 7.527344 C 0.414062 7.527344 0.414062 10.152344 0.730469 11.414062 C 0.90625 12.109375 1.421875 12.632812 2.074219 12.816406 C 3.257812 13.15625 8 13.15625 8 13.15625 C 8 13.15625 12.742188 13.15625 13.925781 12.816406 C 14.578125 12.632812 15.09375 12.109375 15.269531 11.414062 C 15.585938 10.152344 15.585938 7.527344 15.585938 7.527344 C 15.585938 7.527344 15.585938 4.902344 15.269531 3.644531 Z M 6.449219 9.914062 L 6.449219 5.144531 L 10.414062 7.527344 Z M 6.449219 9.914062 " />
  </g>
</svg>