<svg width="18px" height="18px" viewBox="0 0 18 18" version="1.1">
  <g>
    <path d="M 16.667969 0 L 1.332031 0 C 0.597656 0 0 0.578125 0 1.289062 L 0 16.714844 C 0 17.421875 0.597656 18 1.332031 18 L 16.667969 18 C 17.40625 18 18 17.421875 18 16.714844 L 18 1.289062 C 18 0.578125 17.40625 0 16.667969 0 Z M 5.457031 15.066406 L 2.738281 15.066406 L 2.738281 6.941406 L 5.457031 6.941406 Z M 4.097656 5.832031 L 4.078125 5.832031 C 3.167969 5.832031 2.578125 5.203125 2.578125 4.429688 C 2.578125 3.628906 3.183594 3.023438 4.113281 3.023438 C 5.046875 3.023438 5.617188 3.628906 5.632812 4.429688 C 5.636719 5.203125 5.046875 5.832031 4.097656 5.832031 Z M 15.261719 15.066406 L 12.546875 15.066406 L 12.546875 10.722656 C 12.546875 9.628906 12.148438 8.878906 11.164062 8.878906 C 10.410156 8.878906 9.964844 9.382812 9.773438 9.875 C 9.703125 10.039062 9.683594 10.285156 9.683594 10.527344 L 9.683594 15.066406 L 6.960938 15.066406 C 6.960938 15.066406 6.996094 7.703125 6.960938 6.941406 L 9.683594 6.941406 L 9.683594 8.09375 C 10.039062 7.542969 10.6875 6.75 12.128906 6.75 C 13.921875 6.75 15.261719 7.910156 15.261719 10.40625 Z M 9.664062 8.121094 C 9.667969 8.113281 9.671875 8.105469 9.683594 8.09375 L 9.683594 8.121094 Z M 9.664062 8.121094 " />
  </g>
</svg>