<svg width="18px" height="18px" viewBox="0 0 18 18" version="1.1">
  <g>
    <path d="M 17.753906 9.035156 C 17.753906 10.257812 17.730469 11.484375 17.761719 12.710938 C 17.8125 14.875 16.453125 16.546875 14.71875 17.292969 C 14.023438 17.59375 13.292969 17.75 12.535156 17.75 C 10.171875 17.753906 7.800781 17.785156 5.433594 17.738281 C 3.652344 17.703125 2.1875 16.960938 1.136719 15.488281 C 0.582031 14.714844 0.320312 13.835938 0.320312 12.882812 C 0.320312 10.363281 0.320312 7.847656 0.320312 5.328125 C 0.320312 3.269531 1.320312 1.832031 3.101562 0.898438 C 3.875 0.492188 4.714844 0.320312 5.589844 0.316406 C 7.886719 0.316406 10.183594 0.300781 12.480469 0.324219 C 14.261719 0.335938 15.75 1.019531 16.847656 2.453125 C 17.457031 3.253906 17.753906 4.175781 17.753906 5.1875 C 17.753906 6.46875 17.753906 7.75 17.753906 9.035156 Z M 1.617188 9.035156 C 1.617188 10.324219 1.617188 11.613281 1.617188 12.902344 C 1.617188 13.480469 1.75 14.019531 2.050781 14.507812 C 2.832031 15.792969 4.019531 16.417969 5.488281 16.441406 C 7.847656 16.476562 10.210938 16.457031 12.570312 16.449219 C 13.152344 16.449219 13.714844 16.328125 14.238281 16.082031 C 15.664062 15.398438 16.464844 14.3125 16.457031 12.679688 C 16.441406 10.183594 16.453125 7.6875 16.453125 5.191406 C 16.453125 4.484375 16.253906 3.839844 15.835938 3.269531 C 15.027344 2.175781 13.90625 1.636719 12.570312 1.625 C 10.214844 1.597656 7.859375 1.613281 5.503906 1.617188 C 5.003906 1.617188 4.515625 1.71875 4.046875 1.894531 C 2.753906 2.375 1.550781 3.597656 1.605469 5.394531 C 1.648438 6.609375 1.617188 7.820312 1.617188 9.035156 Z M 1.617188 9.035156 " />
    <path d="M 9.054688 12.761719 C 6.789062 12.761719 4.960938 10.953125 4.957031 8.703125 C 4.953125 6.488281 6.796875 4.675781 9.050781 4.675781 C 11.308594 4.671875 13.144531 6.484375 13.148438 8.714844 C 13.148438 10.945312 11.316406 12.757812 9.054688 12.761719 Z M 9.054688 11.460938 C 10.601562 11.460938 11.851562 10.226562 11.847656 8.707031 C 11.84375 7.203125 10.59375 5.972656 9.054688 5.972656 C 7.511719 5.972656 6.253906 7.199219 6.253906 8.714844 C 6.257812 10.234375 7.511719 11.464844 9.054688 11.460938 Z M 9.054688 11.460938 " />
    <path d="M 13.625 3.445312 C 14.097656 3.445312 14.484375 3.851562 14.484375 4.34375 C 14.480469 4.839844 14.089844 5.242188 13.617188 5.238281 C 13.148438 5.234375 12.765625 4.835938 12.765625 4.347656 C 12.761719 3.851562 13.148438 3.445312 13.625 3.445312 Z M 13.625 3.445312 " />
  </g>
</svg>